<?xml version="1.0" encoding="UTF-8" standalone="no"?>
<!-- Created with Inkscape (http://www.inkscape.org/) -->

<svg
   width="45mm"
   height="45mm"
   viewBox="0 0 45 45"
   version="1.1"
   id="svg5"
   xmlns="http://www.w3.org/2000/svg"
   xmlns:svg="http://www.w3.org/2000/svg">
  <defs
     id="defs2">
    <linearGradient
       id="linearGradient9320">
      <stop
         style="stop-color:#d1d1d1;stop-opacity:1;"
         offset="0"
         id="stop9318" />
    </linearGradient>
  </defs>
  <g
     id="layer4"
     style="display:inline"
     transform="translate(0,-50)">
    <g
       id="g3136">
      <rect
         style="fill:#323232;fill-opacity:1;stroke-width:2.2006;stroke-dasharray:none"
         id="rect1662-9"
         width="45"
         height="45"
         x="0"
         y="50"
         rx="6.3957548"
         ry="6.3957548" />
      <g
         id="g3728"
         transform="matrix(0.34504236,0,0,0.34504236,-16.363462,14.98172)"
         style="fill:#666666">
        <rect
           style="fill:#666666;fill-opacity:1;stroke-width:1.57281;stroke-dasharray:3.14562, 1.57281;stroke-dashoffset:1.73009"
           id="rect3446"
           width="28.630924"
           height="28.630924"
           x="97.303276"
           y="152.37717"
           rx="0"
           ry="0" />
        <rect
           style="fill:#666666;fill-opacity:1;stroke-width:0.666293;stroke-dasharray:1.33259, 0.666293;stroke-dashoffset:0.73292"
           id="rect3446-6"
           width="9.6691389"
           height="15.214567"
           x="125.9342"
           y="165.79352"
           rx="0"
           ry="0" />
        <rect
           style="fill:#666666;fill-opacity:1;stroke-width:0.666293;stroke-dasharray:1.33259, 0.666293;stroke-dashoffset:0.73292"
           id="rect3446-6-3"
           width="9.6691389"
           height="15.214567"
           x="87.63414"
           y="165.79352"
           rx="0"
           ry="0" />
        <rect
           style="fill:#666666;fill-opacity:1;stroke-width:0.666293;stroke-dasharray:1.33259, 0.666293;stroke-dashoffset:0.73292"
           id="rect3446-6-3-9"
           width="9.6691389"
           height="15.214567"
           x="68.295868"
           y="165.79352"
           rx="0"
           ry="0" />
        <rect
           style="fill:#666666;fill-opacity:1;stroke-width:0.666293;stroke-dasharray:1.33259, 0.666293;stroke-dashoffset:0.73292"
           id="rect3446-6-3-9-8"
           width="9.6691389"
           height="15.214567"
           x="145.27248"
           y="165.79352"
           rx="0"
           ry="0" />
        <rect
           style="fill:#666666;fill-opacity:1;stroke-width:1.00383;stroke-dasharray:2.00766, 1.00383;stroke-dashoffset:1.10421"
           id="rect3446-6-3-1"
           width="9.6691389"
           height="34.534122"
           x="77.965004"
           y="146.47397"
           rx="0"
           ry="0" />
        <rect
           style="fill:#666666;fill-opacity:1;stroke-width:1.00383;stroke-dasharray:2.00766, 1.00383;stroke-dashoffset:1.10421"
           id="rect3446-6-3-1-8"
           width="9.6691389"
           height="34.534122"
           x="135.60333"
           y="146.47397"
           rx="0"
           ry="0" />
        <path
           style="fill:#666666;stroke-width:2.3;stroke-dasharray:4.59999, 2.3;stroke-dashoffset:2.53"
           id="path388-5"
           d="m 61.185798,68.602303 -20.80617,12.012447 0,-24.024895 z"
           transform="matrix(0,-0.55488295,-0.72403965,0,190.10869,168.87994)" />
        <path
           style="fill:#666666;stroke-width:2.3;stroke-dasharray:4.59999, 2.3;stroke-dashoffset:2.53"
           id="path388-5-3"
           d="m 61.185798,68.602303 -20.80617,12.012447 0,-24.024895 z"
           transform="matrix(0,-0.55488295,-0.72403965,0,132.47036,168.87994)" />
        <path
           style="fill:#666666;stroke-width:2.3;stroke-dasharray:4.59999, 2.3;stroke-dashoffset:2.53"
           id="path388-5-3-8"
           d="m 61.185798,68.602303 -20.80617,12.012447 0,-24.024895 z"
           transform="matrix(0,-0.56744685,-1.2750293,0,199.08869,175.29046)" />
      </g>
      <text
         xml:space="preserve"
         style="font-weight:bold;font-size:9.13889px;font-family:sans-serif;-inkscape-font-specification:'sans-serif, Bold';fill:#808080;fill-opacity:1;stroke-width:0.767408;stroke-dasharray:1.53481, 0.767408;stroke-dashoffset:0.844148"
         x="5.9775391"
         y="89.837807"
         id="text3192"><tspan
           id="tspan3190"
           style="fill:#808080;stroke-width:0.767408"
           x="5.9775391"
           y="89.837807">Castle</tspan></text>
    </g>
    <path
       style="fill:#999999;stroke-width:2.3;stroke-dasharray:4.59999, 2.3;stroke-dashoffset:2.53"
       d="m 12.205898,61.537934 -3.0010021,3.983511 c 0,0 1.3328711,-3e-6 1.3328711,-3e-6 v 6.666064 H 7.2015053 v 5.249671 H 37.097959 c 0,0 0,-5.249671 0,-5.249671 h -3.336264 v -6.666064 l 1.332871,3e-6 -3.001002,-3.983511 -3.001002,3.983511 1.33287,-3e-6 v 6.666064 h -3.336261 l 3e-6,-4.629209 h 0.345305 l -5.284746,-4.073707 -5.284746,4.073707 h 0.345303 v 4.629209 h -3.336262 v -6.666064 l 1.332872,3e-6 -3.001002,-3.983511"
       id="path664" />
  </g>
</svg>
