<?xml version="1.0" encoding="UTF-8" standalone="no"?>
<!-- Created with Inkscape (http://www.inkscape.org/) -->

<svg
   width="45mm"
   height="45mm"
   viewBox="0 0 45 45"
   version="1.1"
   id="svg5"
   xmlns="http://www.w3.org/2000/svg"
   xmlns:svg="http://www.w3.org/2000/svg">
  <defs
     id="defs2">
    <linearGradient
       id="linearGradient9320">
      <stop
         style="stop-color:#d1d1d1;stop-opacity:1;"
         offset="0"
         id="stop9318" />
    </linearGradient>
  </defs>
  <g
     id="layer7"
     style="display:inline"
     transform="translate(-51.059734,0.01299225)">
    <rect
       style="display:inline;fill:#323232;fill-opacity:1;stroke-width:3.8504;stroke-dasharray:none"
       id="rect1662-2"
       width="45"
       height="45"
       x="51.059734"
       y="-0.012992251"
       rx="6.3957548"
       ry="6.3957548" />
    <path
       style="display:inline;fill:#666666;fill-opacity:1;stroke-width:1.91953;stroke-dasharray:3.83905, 1.91953;stroke-dashoffset:2.11148"
       id="path4665"
       d="m 69.775604,13.886683 c -0.394078,-0.02868 -0.06949,-0.0093 -0.622785,-0.02172 -0.509495,-0.01142 -0.678036,-0.02699 -1.207349,-0.01889 -0.562918,0.0086 -0.901812,0.03504 -1.466289,0.06847 -0.653124,0.03703 -1.304015,0.103127 -1.955204,0.16382 -0.15165,0.01414 -0.303275,0.0285 -0.454926,0.04258 -0.11397,0.01058 -0.22757,0.02687 -0.34194,0.0314 -0.07383,0.0029 -0.147664,-0.0061 -0.221495,-0.0091 -0.02838,-0.02865 -0.119866,-0.106444 -0.08513,-0.08596 0.929503,0.548288 1.826628,1.152207 2.77274,1.671305 0.03844,0.02109 0.03577,-0.0807 0.06113,-0.116466 0.0683,-0.09635 0.140041,-0.190679 0.218923,-0.278572 0.365426,-0.407173 0.504751,-0.497162 0.948687,-0.876839 1.527136,-1.206238 3.322862,-1.988509 5.138728,-2.650222 0.356111,-0.129769 0.716362,-0.247882 1.074542,-0.371822 0.326279,-0.103695 0.651554,-0.210597 0.978834,-0.311083 0.65213,-0.200229 0.944213,-0.280985 1.583615,-0.4436 0.42881,-0.109056 0.861097,-0.200848 1.290676,-0.30627 0.0481,-0.07939 0.221616,-0.186806 0.144296,-0.238157 -0.973927,-0.6468143 -2.006524,-1.2092498 -3.066496,-1.7025641 -0.165401,-0.076978 -0.3645,0.017985 -0.546915,0.020874 -0.273288,0.00433 -0.546647,0.00177 -0.819965,7.729e-4 -2.146982,-0.00786 0.124694,-0.012032 -2.254957,-0.00296 -1.766992,3.312e-4 -3.531395,0.1182613 -5.28505,0.3308767 -0.968111,0.1173753 -1.351894,0.1823022 -2.298278,0.3256156 -0.568746,0.069635 -1.129789,0.1941167 -1.698245,0.2660039 -0.179754,0.022731 -0.360389,0.046423 -0.541575,0.046351 -0.107353,-4.27e-5 -0.410675,-0.1019925 -0.318661,-0.046692 2.58871,1.555786 1.741569,1.797336 2.789281,1.480437 0.142278,-0.107069 0.275205,-0.227853 0.426834,-0.321208 0.615217,-0.378773 1.236192,-0.6471523 1.916553,-0.8992193 0.872665,-0.3233139 1.928491,-0.6310356 2.826806,-0.8507772 0.53983,-0.1320501 1.085827,-0.2374656 1.62874,-0.3561983 2.649514,-0.4841218 5.327996,-0.8183441 8.015716,-0.9954114 0.370813,-0.024429 0.742139,-0.040303 1.11321,-0.060455 0.686694,-0.034401 1.374098,-0.042406 2.061469,-0.045009 0,0 -2.518206,-1.8081235 -2.518206,-1.8081235 v 0 c -0.608879,0.070445 -1.217005,0.1468177 -1.824741,0.2265855 -2.968979,0.3821483 -5.938368,0.7701143 -8.891787,1.260108 -0.561858,0.1105696 -1.126296,0.2087556 -1.685575,0.3317083 -0.94671,0.2081267 -2.040454,0.5016042 -2.972092,0.7832837 -0.570416,0.1724646 -1.635131,0.5190872 -2.220271,0.7643516 -0.207149,0.086828 -0.402184,0.2001188 -0.603276,0.3001783 -1.05898,1.1862643 -0.608045,0.43041 2.524084,2.0634703 0.0777,0.04051 0.171925,-0.03421 0.257058,-0.05495 0.673556,-0.164043 0.313648,-0.0993 1.128413,-0.289181 0.290543,-0.06771 0.583046,-0.126711 0.874571,-0.190066 0.948433,-0.174969 1.229988,-0.238088 2.209965,-0.370457 1.748865,-0.236226 3.513389,-0.33909 5.278066,-0.292085 1.128873,0.04233 1.31262,0.03818 2.400185,0.119186 0.309697,0.02307 0.619257,0.0489 0.9281,0.08149 0.220275,0.02324 0.827519,0.229582 0.658907,0.08595 C 74.893279,8.4367775 73.834924,9.3124497 74.8196,8.5756183 c -0.0602,0.033457 -0.117394,0.073011 -0.180598,0.1003719 -0.12117,0.052455 -0.841013,0.3070556 -0.899549,0.3280234 -0.803237,0.2877329 -1.605832,0.5773312 -2.403599,0.8799961 -0.348016,0.1338053 -0.697655,0.2634593 -1.044049,0.4014143 -1.170818,0.466296 -2.32334,0.974112 -3.454227,1.530488 -0.365076,0.17961 -0.732084,0.35617 -1.087783,0.553702 -0.283141,0.157237 -0.551443,0.339822 -0.827164,0.509734 -0.466077,0.320698 -0.711664,0.47502 -1.135267,0.814919 -0.107678,0.0864 -0.214322,0.174788 -0.312255,0.272097 -0.07166,0.0712 -0.273164,0.167933 -0.195022,0.231941 2.430456,1.990815 1.704962,2.185837 2.858502,1.826028 0.903272,-0.202216 1.822143,-0.330866 2.746887,-0.379678 0.249217,-0.01 0.49827,-0.02559 0.747646,-0.0299 0.920545,-0.01596 1.858429,0.02725 2.753248,0.257405 0,0 -2.610761,-1.985476 -2.610761,-1.985476 z" />
    <g
       id="g321"
       style="display:inline" />
    <g
       id="g533"
       transform="matrix(0.63663301,-0.36756025,0.36756025,0.63663301,25.294648,40.514045)"
       style="display:inline">
      <rect
         style="fill:#666666;fill-opacity:1;stroke-width:0.132756;stroke-dasharray:none"
         id="rect2608"
         width="13.677601"
         height="21.223413"
         x="65.616669"
         y="19.650356"
         rx="0.76568514"
         ry="5.869339" />
      <path
         style="fill:#666666;fill-opacity:1;stroke-width:0.139698;stroke-dasharray:none"
         d="M 67.021099,16.088555 H 77.292495 C 77.292495,12.33758 74.644226,7.1678517 72.237915,3 69.853753,7.1294867 67.021099,12.375132 67.021099,16.088555 Z"
         id="path2851" />
      <rect
         style="fill:#666666;fill-opacity:1;stroke-width:0.144328;stroke-dasharray:none"
         id="rect3117"
         width="13.092516"
         height="1.8703595"
         x="65.776878"
         y="16.994888"
         rx="0.53164494" />
    </g>
  </g>
</svg>
