<?xml version="1.0" encoding="UTF-8" standalone="no"?>
<!-- Created with Inkscape (http://www.inkscape.org/) -->

<svg
   width="52.31876mm"
   height="10.27394mm"
   viewBox="0 0 52.31876 10.27394"
   version="1.1"
   id="svg5"
   xmlns="http://www.w3.org/2000/svg"
   xmlns:svg="http://www.w3.org/2000/svg">
  <defs
     id="defs2">
    <linearGradient
       id="linearGradient9320">
      <stop
         style="stop-color:#d1d1d1;stop-opacity:1;"
         offset="0"
         id="stop9318" />
    </linearGradient>
  </defs>
  <g
     id="layer5"
     style="display:inline"
     transform="translate(-110.47601,-143.36303)">
    <g
       id="g3676"
       style="display:inline"
       transform="translate(1.7310711,-0.36231)">
      <path
         style="fill:#808080;fill-opacity:1;stroke:none;stroke-width:1.59775;stroke-dasharray:3.19551, 1.59775;stroke-dashoffset:1.75753;stroke-opacity:1"
         d="m 108.74494,153.99928 5.41588,-10.27394 h 41.487 c 0,0 5.41588,10.27394 5.41588,10.27394 0,0 -52.31876,0 -52.31876,0 z"
         id="path12002-7-7" />
      <path
         style="fill:#ffffff;stroke-width:2.3;stroke-dasharray:4.59999, 2.3;stroke-dashoffset:2.53"
         id="path1478"
         d="m 161.91629,145.64179 -5.0599,0 2.52995,-4.382 z"
         transform="matrix(0.72215466,0,0,1.3412393,31.386718,-43.539521)" />
      <path
         style="fill:#ffffff;stroke-width:2.3;stroke-dasharray:4.59999, 2.3;stroke-dashoffset:2.53"
         id="path1478-8"
         d="m 161.91629,145.64179 -5.0599,0 2.52995,-4.382 z"
         transform="matrix(0.72215466,0,0,1.3412393,35.040751,-43.539521)" />
      <path
         style="fill:#ffffff;stroke-width:2.3;stroke-dasharray:4.59999, 2.3;stroke-dashoffset:2.53"
         id="path1478-8-0"
         d="m 161.91629,145.64179 -5.0599,0 2.52995,-4.382 z"
         transform="matrix(0.72215466,0,0,1.3412393,38.694783,-43.539521)" />
      <rect
         style="fill:#ffffff;stroke-width:1.66096;stroke-dasharray:3.3219, 1.66096;stroke-dashoffset:1.82705"
         id="rect1578"
         width="10.962096"
         height="0.51150316"
         x="144.66127"
         y="151.80095" />
      <text
         xml:space="preserve"
         style="font-weight:bold;font-size:4.25502px;font-family:sans-serif;-inkscape-font-specification:'sans-serif, Bold';fill:#6c5353;stroke-width:0.357301;stroke-dasharray:0.7146, 0.357301;stroke-dashoffset:0.393031"
         x="139.4994"
         y="122.49386"
         id="text1634-4"
         transform="scale(0.81594966,1.2255658)"><tspan
           id="tspan1632-2"
           style="fill:#ececec;stroke-width:0.357301"
           x="139.4994"
           y="122.49386">Obstacle</tspan></text>
    </g>
  </g>
</svg>
